<svg version="1" xmlns="http://www.w3.org/2000/svg" width="3172" height="3172" viewBox="0 0 2379.000000 2379.000000"><path d="M1065 87.1c-113 2-216.3 8.8-275.5 18-53.3 8.3-78.5 17.3-85.7 30.4-4.8 8.8-9 30-13.2 66.6l-2.1 18.6-16.5-3.9c-33.1-7.6-43.5-9.1-65-9.2-15.4-.1-21.3.3-28 1.7-42.1 9-74.7 34-102.7 79-17.5 28.3-21 54.5-10.6 79.7 10.1 24.5 32.1 48.3 64.3 69.7 21 14 39.8 24 65.5 34.8 8.8 3.7 20.5 9.5 26.1 13 12.7 8 24.7 14.5 39.9 21.7 10.5 4.9 12 5.9 11.9 8-.1 1.3-.5 19.4-.8 40.3-.4 20.9-.9 39-1.2 40.2-.4 2.2-.9 2.3-8.9 2.3-5.5 0-24.7-2.5-55.2-7.3l-46.8-7.2-27.5.1c-30.7.1-43.6 1.7-61.5 7.6-20.7 6.9-30.8 14.9-43.9 34.7-4.6 6.9-15.1 22.5-23.3 34.6-12.1 17.9-15.7 24-19.2 32.8-10.9 27.7-13.4 51.4-8 78.1 2.5 12.3 5.6 19.8 12.5 30.2 10.1 15.3 28 29.9 51 41.6 17.3 8.9 26.8 12.3 56.4 20.4 37.4 10.2 57.4 16.2 77 22.9 41.2 14.1 49.4 15.9 84.3 18.1l9.7.6v28.9c0 28.4 0 28.9-2 28.9-2.7 0-44.5-4.7-59-6.6-6.3-.8-25.2-4.2-42-7.6-28.7-5.7-31.1-6-41.5-5.6-8.9.4-12.8 1.1-20.2 3.6-29.4 10-56 33.1-68.3 59.5-9.5 20.4-12.2 46.2-8 77.8 2.7 20.2 4.1 25.3 10.2 37.9 4.2 8.6 6.3 11.7 12.2 17.5 8 8 24.9 19.7 47.1 32.8 21.3 12.5 69.7 36.5 84.5 41.9 7.8 2.8 27.3 8.1 51.6 13.8l39 9.4 1.4 47.5c.7 26.2 1.3 48.7 1.4 50 .1 1.9-.5 2.6-2.9 3.2-33.9 8.1-31.4 7.7-57 8.2-31.3.6-38.6 2.1-59 12.2-19.2 9.5-30.6 21.1-40.5 41-9.5 19.2-13.5 40.2-12.7 66.5.3 12.3.9 16.9 2.6 22.5 9.9 31.1 38.5 53.3 84.1 65.4 24.8 6.6 53.7 10.1 82.8 10.1H690v2.9c0 4.4 4.6 30.7 7 40.2 3.4 13.1 6.2 18.2 12.3 22.2 24 15.7 100.9 27 244.2 36 4.5.3 22.6 10.1 191.5 104.1 102.6 57.1 187 104.3 187.6 105 .6.6 31.6 114.3 68.9 252.6 37.3 138.3 67.9 251.6 68 251.8.5.6 351-5.1 351.7-5.7.4-.3-26.7-136.3-60.3-302.1-33.5-165.8-61-302.4-61.1-303.5-.1-1.1 48-109.8 107-241.5l107.2-239.5 35.5-200 35.6-200-4.2-12c-53.8-156-95.8-261.8-112.7-283.9-2-2.7-5.9-6.3-8.5-7.9-12.7-7.8-54.7-23.8-124.2-47.3-12.1-4.1-25.9-8.9-30.6-10.5l-8.6-3.1-.7-19.1c-7.9-226.8-18.2-345.5-31.8-367.5-5-8.1-22.9-14.7-58.3-21.6-41.6-8.2-139.5-17.8-220-21.6-12.1-.6-31-1.5-42-2-53-2.6-208.2-4.2-278.5-2.9zm558 189.2c0 37.6-.3 102.9-.7 145l-.6 76.7-2.1-.6c-4-1.2-10.2-4.4-23.1-11.9-25.8-14.9-64.7-33.1-89-41.4-21.7-7.4-41.1-10.4-52.9-8.2-8 1.5-28.3 11.5-38.1 18.8-17.7 13.1-28.2 29-33.7 50.9-3.2 12.7-3.1 38.3.1 53.3 11.3 53 49.2 117.3 97.5 165.6 25.9 25.9 58.5 47.7 116.6 77.9l24.6 12.8-.3 262.2c-.2 144.1-.6 290.6-.9 325.3l-.6 63.3h-319.9c-176 0-319.9-.2-319.9-.5s1.6-3.7 3.6-7.7c4.4-8.7 10.7-27.4 13-38.8 2.2-10.4 2.5-30.2.5-38-.7-3-2.8-8.7-4.7-12.6-12.3-26-41.3-41.1-91.1-47.4-13.2-1.7-21.7-2-51.3-2-19.5 0-42.7.5-51.5 1-15.8 1-50.9 4.6-55.2 5.7l-2.3.5v-17.4c0-9.6.3-26.9.7-38.4l.6-21 17.1 2.8c43.7 7.1 78.8 5.9 108.6-3.8 35.2-11.3 62.6-36.1 79.9-72.5 5.6-11.6 12.1-30.6 14.2-41.4 2-10 1.8-34.1-.4-42.8-5.2-21-18.7-41.4-37.6-57-26.8-22.3-70.9-43.3-113.6-54.2-17.5-4.4-28.6-6.3-50-8.3l-18-1.7-.3-29.1-.2-29.1 25.2-.6c92.2-2.2 152.3-27 178.6-73.7 8.5-15.1 13.6-33 15.4-54.3C967.3 711 925.4 658 837.5 627c-18.5-6.5-62.2-17.6-84.7-21.5l-9.8-1.7v-69.1l3.8.7c23.4 4.1 31 4.8 52.7 4.3 24.1-.5 33.7-1.9 51.9-7.7 33.5-10.8 63.1-33.1 88.1-66.5C948.1 454.1 958 435 961 424c2.9-10.3 3.7-29.1 1.7-38.6-5.9-27.8-28.3-55-66-80.3-32.3-21.6-84.6-46-135.2-63.1l-17-5.7-.3-14.1-.3-14.2H1623v68.3z"/><path d="M1142.5 357.9c-8.3 5.1-13.7 7.1-19.6 7.1-3.4 0-5.1.5-5.5 1.4-1.3 3.5-19.3 8.6-30.1 8.6-4.6 0-8.3.3-8.3.7 0 .5 3.3 2.4 7.3 4.3 4.2 2.1 7.3 4.2 7.5 5.2.3 1.8-1 3.1-18.8 19.1l-8.5 7.7h-14.7c-8.2 0-14.8.3-14.8.8 0 .4 2 1.8 4.4 3.1 5.7 3 8 7.2 6.5 12.4-1.4 5.2-11.1 15.4-15.8 16.7-3.7 1-7.1 4-12.9 11.6-3.6 4.7-4.2 7-1.4 5.9.9-.4 3.8-1 6.4-1.2 5.7-.6 7.8.7 7.8 4.8 0 1.7 1.3 4.8 3.1 7.1l3 4.3-4 1.7c-2.2.9-4.4 2.6-5 3.7-3 5.6.2 26.9 5.8 37.8 4.6 9.1 6 10 20.4 12.7 6.9 1.4 13.6 3 14.9 3.7 5.6 2.8 12.7 9.1 16.1 14.1l3.6 5.3-2.2 1.8c-2.2 1.8-2.2 1.8 1.3 1.3 3.3-.6 3.3-.5 1 .5-2 1-2.2 1.3-.8 1.6 1 .3 1.5 1 1.1 1.9-.6 1.6.8 1.9 2.3.4.7-.7 2.8 1.6 6.7 7.4l5.6 8.4 11.3 5.5c6.2 3 16.3 7.2 22.3 9.3 6.1 2 11.3 4 11.6 4.3.7.6-1.5 29.9-2.3 30.6-.2.2-6.4 1.9-13.8 3.8-10.1 2.5-14 3.1-15.2 2.3-1.3-.7-2.6-.6-5.3.7-2 .9-4.9 1.7-6.5 1.7-2 0-3 .5-3 1.5 0 .8-1.7 1.9-4.2 2.5-2.4.6-6.6 1.8-9.5 2.6-2.8.7-6.7 1.4-8.7 1.4-2 0-3.6.3-3.6.7 0 .3-4 31.3-9 68.7-5.6 42.5-9.8 70.7-11.1 75.1-2.5 8.2-2.3 6.7-8.3 82-3.2 39.8-5 58.8-6 60.5-.8 1.4-4.9 9-9.1 17l-7.7 14.4 2.1 6.1c1.2 3.3 2.1 7.2 2.1 8.7 0 3 5.3 10.1 12.4 16.6l4.7 4.3 7.2-.7c4-.3 7.8-1.1 8.5-1.7.8-.6 1.2-2.6 1-5.1-.3-3.6-.7-4.3-4.2-6.1-4.8-2.5-5.3-3.7-2.4-5 4-1.8 5-5.1 4.4-15.5-.4-6.7-1.7-13.3-4.4-22.5l-3.8-13 9.8-55c5.3-30.3 10.6-58.7 11.7-63.2 1.2-4.5 2.1-10.6 2.1-13.5-.1-10.1 6.4-114.8 7.1-114 .3.4 1.4 4.5 2.3 9.2.9 4.7 2.7 12.6 4.1 17.5 2.1 7.8 2.3 9.1 1 10.1-1.2.9-1.2 1.8-.4 4.5 4.3 14.2 15.4 93.7 16.6 118.9.4 9.3.1 15.2-1.2 23.2-.9 5.9-1.4 11.2-1 11.8.3.5 3.2 1 6.4 1s6 .2 6.3.6c.3.3.2 2.2-.3 4.2s-2.9 19.9-5.4 39.7c-5.8 46.1-5.3 43.5-7.3 43.5-1.5.1-1.5.2.1 1.4 2.1 1.7 2.2 2.6.1 2.6-1.3 0-1.4.3-.4 1.4.9 1.2.7 6.2-1 22.8-1.1 11.7-2.3 21.9-2.6 22.7-.2.8-.7 3.9-1 6.9-.2 3-.9 6.3-1.4 7.3-.7 1.2-.3 4.9 1 11.6 1.9 9.5 16 117.4 16 122.5 0 2.1-1.8 3.7-10.2 9.3-5.7 3.8-13.2 9.6-16.8 12.9-3.6 3.4-9.1 8.3-12.2 11-5.2 4.3-7.6 8.6-4.8 8.6.5 0 .7 1.3.4 2.9-.5 2.2-.1 3.2 2 4.8 1.4 1.1 2.3 2.3 1.9 2.6-1.1 1.1 2.7 5.7 4.7 5.7 1.5 0 2 .7 2 2.9 0 3.4 3 6.1 6.7 6.1 1.6 0 2.5.8 2.9 2.4.3 1.4 1.4 3.2 2.4 4.1 2.8 2.5 10 3.1 13.7 1.1 3.5-1.8 7.3-8.6 7.3-13.1 0-1.9 1.1-4.1 3.4-6.5 4.6-4.8 5.6-8.6 5.6-21.3 0-10.9 0-11 4-18.2 4.3-7.7 4.9-10.9 2.6-13.4-1-1.1-1.6-5.8-2.2-15.4-.6-12.5-.5-13.7 1-13.1 2.2.8 2.1-1.2-.1-2.1-1.6-.7-1.5-.9.7-1.5l2.5-.8-2.5-.1-2.5-.2 2.5-1.4 2.5-1.4-2.3-.1h-2.3l-.1-52.8c-.2-62.8-.2-56.3 1.6-109.1l1.5-42.4 3.8-3c5.6-4.6 11.9-11.3 13.5-14.7l1.5-3.1 3.7 6.1c4.3 6.9 9.1 11 13 11 3.5 0 9.5-5.7 14-13.3l3.5-5.9 1.5 3c.8 1.6 4.9 6 8.9 9.9l7.5 6.9 1.2 45c1.5 54 1.5 48.8.7 54.9-.3 2.7-.6 27.1-.6 54.2l-.1 49.2-2.2.4c-2.3.4-2.3.5.2 1.3l2.5.8-2.5.7c-2.4.7-2.4.7-.2.8 2.4.1 3.1 2.1.7 2.1-.8 0-1.5.4-1.5 1 0 .5.6 1 1.4 1 2.1 0 1 27.5-1.2 30.8-1.4 2.2-1.3 2.9 2.8 10.5l4.3 8.2.5 13c.5 14.1 1.9 18.7 6.5 21.8 1.9 1.2 2.5 2.5 2.5 5.6.1 4.5 1.9 8.7 5.2 11.6 1.6 1.5 3.6 2 7.7 2 4.8 0 5.8-.4 7.9-2.8 1.3-1.5 2.4-3.5 2.4-4.3 0-.9 1.1-1.4 3-1.4 4 0 7.4-3.4 6.6-6.6-.5-1.9-.2-2.4 1.2-2.4 2.3 0 5.2-3 5.2-5.3 0-.9.9-2.1 2.1-2.7 1.4-.8 2-2 1.8-3.8-.1-1.5.1-3.5.5-4.4.4-.9.6-2.3.4-3-.7-3.2-33.7-30.8-42.4-35.4-3-1.6-3.3-2.2-2.9-4.9.3-1.6 3.9-28.7 8-60 4.1-31.4 8.2-59.9 9-63.4 1.2-4.8 1.3-7.7.6-12-.5-3.1-1-6.3-1-7.1 0-.8-1.2-12.5-2.6-26-1.7-16.3-2.3-24.6-1.6-24.8.6-.2.4-1.1-.6-2-1.5-1.6-1.5-1.7 0-2 2.1-.4 2.2-2.2.2-2.2-.8 0-1.5-.5-1.5-1 0-3.2-8.5-74.3-9.7-80.8l-.5-3.3-7.4 4.1c-4.1 2.2-7.4 3.8-7.4 3.6 0-1.1 16.4-9.6 18.4-9.6 3.1 0 3.5-.7 2.5-4.3-2-7.5-3.9-30.5-3.9-48.3 0-18.6.1-19.6 3.9-36.5 2.1-9.6 5.4-26 7.1-36.4 2.2-12.4 4-20.2 5.3-22.3 1.8-3 1.8-3.8.7-7.2-1.1-3.4-1-5.4.9-15.2 1.2-6.2 3.1-14.8 4.2-19 1-4.2 1.6-8.3 1.3-9.2-.3-.9-.2-1.6.3-1.6s2.5 24.6 4.6 54.7c4.3 64.4 4.7 73.1 3.6 73.5-.5.2 0 3.2 1.1 6.8 1 3.6 6.4 31.7 12 62.4l10.2 55.9-3.7 14.7c-5.6 22.6-5.1 35 1.6 36.7 2.6.7 1.9 2.5-1.7 4.2-3.9 1.9-5.3 4-5.4 7.7 0 4.4 2.1 5.7 10.1 6l7.1.4 5.4-5.2c7.2-6.8 11.4-13.3 11.4-17.5 0-1.9.7-5 1.5-7 2-4.7 1.9-8.5-.3-11.4-1-1.3-5.1-8.2-9.2-15.4l-7.4-12.9-4.8-57.1c-2.6-31.3-4.7-60.6-4.7-65 .2-5.9-.5-10.5-2.4-17.5-1.6-6-6.2-34.5-12.2-76.5-5.2-36.9-9.5-67.3-9.5-67.8 0-.4-1.7-.7-3.7-.7-5.9 0-22.3-4.2-22.3-5.7 0-.7-1-1.3-2.2-1.4-4.2-.1-7.2-.9-8-2.2-.6-.9-1.2-.9-2.7 0-1.7 1.1-4.5.7-16.8-2.2-8.1-2-15.5-3.8-16.5-4.1-1.3-.4-1.7-2.4-2.3-10.2-.3-5.3-.8-11.4-1.1-13.5l-.6-3.7h11.6c9.1 0 12.9-.4 17.3-2 10.4-3.6 18.6-14.4 22.9-29.8 1.5-5.2 2.1-6.2 4-6.2 2.6 0 2.7-2.7.1-4.2-2-1.1-1.3-3 .7-2.2.8.3 1.7.1 2.1-.5.3-.7-.3-1.1-1.5-1.1-1.6 0-2-.5-1.6-1.8.3-.9.8-3.1 1.2-4.7 1-4.2 3.8-9.7 6.2-11.9 1.6-1.3 5.2-2.1 14.2-3.1 7.1-.8 13.1-2 14.5-2.9 8.3-5.5 21.5-30.8 21.5-41.3 0-4.8-2.1-7.9-6.7-9.8-3.1-1.3-3.4-1.8-2.8-4.2 1.5-6.4 5.5-13.3 8.7-15.3 2.6-1.7 4.4-2 8.6-1.6 2.8.2 5.2.1 5.2-.4 0-.4-3.2-3.8-7.1-7.5-6.6-6.2-15.3-11.5-18.9-11.5-.9 0-3.1-3-5.2-7.4l-3.7-7.4 4.2-4.4c2.3-2.3 5.1-4.8 6.2-5.4 1.8-1 1.7-1.3-2-3.1-2.2-1.1-9.8-4.4-16.9-7.2-11.8-4.8-40.6-21.2-40.6-23.1 0-.4 3.4-2.3 7.5-4.1 4.1-1.8 7.5-3.6 7.5-4 0-.3-5.1-1-11.2-1.4-6.2-.3-16.9-1.3-23.8-2.1-7.5-.9-20.2-1.4-32-1.3-22.7.2-21.9.6-17.6-10.2 1.5-3.4 2.6-6.4 2.6-6.6 0-.8-1.9.1-7.5 3.6zM1123 472.5c0 .8-.9 1.5-2 1.5s-2-.7-2-1.5.9-1.5 2-1.5 2 .7 2 1.5zm83.5 3.5c0 .8-1 1.6-2.2 1.8-1.8.3-2.3-.2-2.3-1.8s.5-2.1 2.3-1.8c1.2.2 2.2 1 2.2 1.8zm24 88c.3.5.1 1-.4 1-.6 0-1.1-.5-1.1-1 0-.6.2-1 .4-1 .3 0 .8.4 1.1 1zm-7.8 156.6c-.3.3-1.2.4-1.9.1-.8-.3-.5-.6.6-.6 1.1-.1 1.7.2 1.3.5zm-93.2 15.4c.3.5.1 1-.4 1-.6 0-1.1-.5-1.1-1 0-.6.2-1 .4-1 .3 0 .8.4 1.1 1zm43.2 8.2c-.3.8-.6.5-.6-.6-.1-1.1.2-1.7.5-1.3.3.3.4 1.2.1 1.9zm-40.7 2.3c.8.9.7 1.4-.4 1.8-.8.3-2.1-.4-3-1.8-1.4-2.1-1.4-2.3.4-1.8 1.1.3 2.4 1.1 3 1.8zm36.7-.3c-.3.8-.6.5-.6-.6-.1-1.1.2-1.7.5-1.3.3.3.4 1.2.1 1.9zm-20.2 3.8c.3.6-.4.9-1.9.8-1.3-.1-2.2-.6-2-1 .7-1.1 3.2-1 3.9.2zm6.2 27.6c-.2.3-6.7.3-14.3.2-13.6-.3-13.8-.3-5.9-1.1 12.7-1.2 14.3-1.6 17.2-4.2l2.8-2.3.3 3.5c.2 1.9.1 3.7-.1 3.9zm.3 26.2c0 3.2-.4 4.9-1.2 5-5.3.5-11.6 2.6-13.6 4.5-2.1 1.9-2 1.6.6-2.3 3-4.5 3-4.5.9-5.2-2-.6-2.1-.6-.2-.7 1.1-.1 3.8-1.5 6-3.1 6-4.4 7.5-4 7.5 1.8zm-.3 8.4c-.3.8-.6.5-.6-.6-.1-1.1.2-1.7.5-1.3.3.3.4 1.2.1 1.9zm-6.7 5.3c0 1.7-6.4 11.5-7.4 11.2-2.3-.8-1.8-4.8.9-6.9 1.5-1.2 3.2-2.7 3.9-3.4 1.1-1.3 2.6-1.8 2.6-.9zm4.5.5c-.3.5-1.3 1-2.1 1s-1.4-.5-1.4-1c0-.6.9-1 2.1-1 1.1 0 1.7.4 1.4 1zm.5 9.2c2.8 1.8 3 10.9.2 10.5-3.2-.5-6.1-3.2-5.1-4.7.5-.8.9-3.8.9-6.5.1-4 .3-4.5 1-2.8.5 1.2 1.8 2.8 3 3.5zm-22.2 60.2c3.7 1.9 7.6 4.1 8.7 5 1.1.9-2-.5-7-3.1-9.6-4.9-10.2-5.3-9.1-5.3.3 0 3.7 1.5 7.4 3.4zm71.2 1c0 .2-1.5 1.4-3.3 2.5-1.9 1.1-4.6 3.2-6 4.5-1.5 1.4-2.7 2.1-2.7 1.6s2.5-2.7 5.7-4.9c5.6-4.1 6.3-4.5 6.3-3.7zm-57 8.1c1.3 1.4 2.1 2.5 1.8 2.5-.2 0-1.5-1.1-2.8-2.5-1.3-1.4-2.1-2.5-1.8-2.5.2 0 1.5 1.1 2.8 2.5zm5.9 11c0 .5-.8-.6-1.9-2.5-1.1-1.9-1.9-4-1.9-4.5 0-.6.8.6 1.9 2.5 1.1 1.9 1.9 3.9 1.9 4.5zm38.1-5.7c0 .5-.7 1.7-1.5 2.8-1.4 1.8-1.4 1.7-.4-.9 1.2-2.7 1.9-3.4 1.9-1.9zm-140 64c-.8 2.6-1.4 6.4-1.3 8.4.1 2.1-.1 3.8-.4 3.8-.2 0-1.3-2-2.4-4.5l-2-4.5 2.8-5c3.5-6.2 5.4-5.2 3.3 1.8zm237 7.8c-1.6 5.6-3 5.7-3 .1-.1-2.3-.6-5.2-1.4-6.5-.7-1.3-1-3.7-.8-5.4l.5-3 2.9 5.1c2.9 4.9 3 5.4 1.8 9.7zm-51.2 246.9c-.3.3-.9-.2-1.2-1.2-.6-1.4-.5-1.5.5-.6.7.7 1 1.5.7 1.8zm-133.7 1.8c-1 .9-1.1.8-.5-.6.3-1 .9-1.5 1.2-1.2.3.3 0 1.1-.7 1.8z"/></svg>